PathFileType	4	(X/Y/Z)	C:/Users/opensim2020/Desktop/walking_exp_matlab/subject03_walking11_straight_01.trc																																																																																																																																								
DataRate	CameraRate	NumFrames	NumMarkers	Units	OrigDataRate	OrigDataStartFrame	OrigNumFrames																																																																																																																																				
100	100	6	46	mm	100	804	454																																																																																																																																				
Frame#	Time	LFHD			RFHD			LBHD			RBHD			C7			T10			CLAV			STRN			RBAK			LSHO			LUPA			LELB			LFRM			LWRA			LWRB			LFIN			RSHO			RUPA			RELB			RFRM			RWRA			RWRB			RFIN			LASI			RASI			LPSI			RPSI			LTHI			LKNE			LTIB			LANK			LHEE			LTOE			RTHI			RKNE			RTIB			RANK			RHEE			RTOE			*39			*40			*41			*42			*43			*44			*45		
		X1	Y1	Z1	X2	Y2	Z2	X3	Y3	Z3	X4	Y4	Z4	X5	Y5	Z5	X6	Y6	Z6	X7	Y7	Z7	X8	Y8	Z8	X9	Y9	Z9	X10	Y10	Z10	X11	Y11	Z11	X12	Y12	Z12	X13	Y13	Z13	X14	Y14	Z14	X15	Y15	Z15	X16	Y16	Z16	X17	Y17	Z17	X18	Y18	Z18	X19	Y19	Z19	X20	Y20	Z20	X21	Y21	Z21	X22	Y22	Z22	X23	Y23	Z23	X24	Y24	Z24	X25	Y25	Z25	X26	Y26	Z26	X27	Y27	Z27	X28	Y28	Z28	X29	Y29	Z29	X30	Y30	Z30	X31	Y31	Z31	X32	Y32	Z32	X33	Y33	Z33	X34	Y34	Z34	X35	Y35	Z35	X36	Y36	Z36	X37	Y37	Z37	X38	Y38	Z38	X39	Y39	Z39	X40	Y40	Z40	X41	Y41	Z41	X42	Y42	Z42	X43	Y43	Z43	X44	Y44	Z44	X45	Y45	Z45	X46	Y46	Z46
																																																																																																																																											
171	1.7	-434.7099	1617.94312	1341.80322	-441.02106	1626.83972	1474.67041	-559.85443	1566.57239	1343.11877	-561.32703	1575.27136	1474.12854	-585.79474	1415.03015	1403.40186	-625.9682	1103.29749	1406.69324	-465.62024	1335.0752	1407.71899	-425.94107	1169.05798	1402.3606	-646.97772	1240.3645	1493.63354	-505.24759	1372.09338	1251.08484	-491.93588	1179.65833	1178.00061	-458.56769	1061.59973	1164.87427	-389.20197	952.43579	1174.62439	-328.99033	854.73138	1214.57581	-349.10114	846.23792	1163.54749	-297.7674	782.43915	1178.31396	-519.70349	1360.04272	1566.06299	-531.18939	1136.49341	1633.92859	-519.2168	1023.02167	1644.8186	-508.20224	886.02722	1643.01868	-484.14969	789.95007	1603.54224	-512.52783	786.24164	1650.00378	-493.03162	714.42621	1636.79468	-471.46619	934.06818	1284.68079	-459.79834	935.63867	1523.52844	-630.98633	961.51489	1346.12512	-622.36334	967.32904	1493.90271	-576.42206	642.68604	1249.70483	-612.13275	467.30038	1281.66943	-725.20807	301.68164	1283.5675	-804.31934	103.64357	1325.6925	-850.94189	82.17884	1364.13757	-666.30408	32.82795	1345.20093	-471.36459	644.96985	1567.84985	-408.71094	475.27124	1529.60486	-406.96704	288.94861	1538.87036	-378.58463	73.61411	1497.0033	-421.01309	41.68848	1445.74756	-235.89389	39.41634	1482.26001	NaN	NaN	NaN	NaN	NaN	NaN	NaN	NaN	NaN	NaN	NaN	NaN	NaN	NaN	NaN	NaN	NaN	NaN	NaN	NaN	NaN
172	1.71	-427.98416	1619.47766	1343.00659	-434.09393	1628.39209	1475.7832	-553.06189	1567.89453	1344.58679	-554.29358	1576.66687	1475.62402	-578.55548	1416.38403	1404.82349	-618.47925	1104.66333	1407.38513	-458.14014	1336.67688	1409.08069	-418.49615	1170.56812	1403.67175	-639.37891	1241.76392	1495.12988	-498.05948	1373.82617	1252.37903	-486.22116	1180.84253	1179.91284	-453.91901	1062.41357	1167.12817	-386.71136	951.80896	1176.1626	-328.20221	852.76099	1215.4093	-348.83228	844.85297	1164.36462	-298.71487	779.97101	1178.65259	-512.03888	1361.63184	1567.42981	-522.461	1137.92273	1634.81653	-510.2157	1024.55725	1645.53308	-500.49164	887.46967	1644.07703	-477.67618	790.94165	1604.65674	-505.36292	787.64386	1651.62012	-487.0466	715.52484	1638.23083	-463.2612	935.05304	1286.44885	-452.20816	937.90063	1524.95618	-623.11725	962.68738	1346.9541	-614.87756	969.25433	1494.61829	-568.60907	643.54688	1250.15076	-604.54944	468.22104	1281.48315	-719.94049	303.85056	1283.38159	-802.35333	107.44351	1325.01733	-848.90973	87.03252	1363.99622	-666.09332	32.84662	1345.1593	-463.39206	647.05042	1568.93616	-403.2767	476.57248	1530.32922	-404.56018	289.48889	1539.74988	-378.84674	74.06508	1497.53235	-421.07919	41.68319	1445.97961	-236.05609	39.32512	1482.7157	-515.07233	1678.20215	1388.49414	NaN	NaN	NaN	NaN	NaN	NaN	NaN	NaN	NaN	NaN	NaN	NaN	NaN	NaN	NaN	NaN	NaN	NaN
173	1.72	-421.2691	1621.04248	1344.17358	-427.16162	1629.97742	1476.9386	-546.31622	1569.27771	1346.07324	-547.17413	1578.11157	1476.98877	-571.34283	1417.71777	1406.27112	-610.96814	1106.12268	1408.24915	-450.64517	1338.2876	1410.50464	-410.96576	1172.1886	1404.96252	-631.71045	1243.23254	1496.71375	-490.78448	1375.61646	1253.84375	-480.5264	1182.17163	1181.80615	-449.63986	1063.33459	1169.39197	-384.44733	951.42963	1177.61914	-327.73456	850.90143	1216.05371	-348.98108	843.67725	1165.17004	-300.17392	777.58716	1178.93164	-504.47498	1363.5022	1568.78174	-513.72363	1139.50195	1635.78564	-501.42529	1026.21802	1646.09509	-492.57782	889.17432	1645.17456	-470.87643	792.20587	1605.96533	-498.01501	789.39185	1653.24194	-480.7446	716.71136	1639.78418	-455.41272	936.16919	1287.81116	-444.46851	940.19696	1526.31006	-615.18555	963.88574	1347.87097	-607.25171	971.14484	1495.47986	-560.63672	644.52594	1250.40173	-596.23584	469.01501	1281.00818	-714.2326	306.11929	1283.00659	-799.88831	111.0522	1324.53735	-846.6452	91.86488	1363.59338	-665.87781	32.85677	1345.15991	-456.1084	648.44708	1570.20837	-398.69327	477.58398	1531.56616	-403.1145	289.7037	1540.90479	-379.14871	74.18293	1497.88831	-421.29465	41.647	1446.21802	-236.2907	39.24283	1483.0564	NaN	NaN	NaN	NaN	NaN	NaN	NaN	NaN	NaN	NaN	NaN	NaN	NaN	NaN	NaN	NaN	NaN	NaN	NaN	NaN	NaN
174	1.73	-414.63522	1622.58948	1345.32666	-420.14511	1631.51172	1478.12292	-539.55975	1570.65247	1347.51123	-540.21283	1579.49084	1478.50281	-564.20032	1419.08716	1407.84119	-603.38892	1107.51282	1409.29382	-443.2468	1339.7959	1411.79089	-403.49603	1173.72205	1406.25867	-623.94519	1244.75037	1498.35767	-483.42908	1377.5033	1255.33972	-474.74207	1183.6593	1183.82214	-445.49738	1064.33459	1171.58252	-382.50015	951.12921	1178.99426	-327.48212	849.24542	1216.65515	-349.32196	842.62158	1165.91724	-302.04559	775.23639	1179.17334	-496.6189	1365.24512	1570.11743	-505.27545	1141.23669	1636.87866	-492.89078	1028.04858	1646.82983	-484.5173	891.01288	1646.36511	-463.78046	793.72778	1607.28552	-490.44196	791.23877	1654.90784	-474.1188	718.19263	1641.50085	-447.51575	937.37189	1289.34644	-436.72128	942.40112	1527.79602	-607.14917	965.24799	1348.91113	-599.50183	972.84796	1496.46594	-552.36353	645.50439	1250.80066	-587.88159	469.77991	1279.96704	-708.18024	308.42105	1282.39612	-797.02576	114.84	1324.0249	-843.98322	97.01103	1363.19128	-665.49603	32.81719	1345.04126	-449.0589	650.31873	1571.73218	-394.78064	478.31274	1533.04785	-402.06384	289.84433	1542.0199	-379.46506	74.2611	1498.26648	-421.36395	41.60179	1446.4801	-236.45042	39.2226	1483.37292	-501.39542	1681.16052	1390.95569	NaN	NaN	NaN	NaN	NaN	NaN	NaN	NaN	NaN	NaN	NaN	NaN	NaN	NaN	NaN	NaN	NaN	NaN
175	1.74	-408.04233	1624.05334	1346.50024	-413.23648	1632.99939	1479.34973	-532.80688	1571.95093	1349.01465	-533.14771	1580.83154	1479.94751	-557.04034	1420.35925	1409.34766	-596.19598	1108.9552	1410.60327	-435.82974	1341.29541	1413.20801	-396.11041	1175.25012	1407.43555	-616.20813	1246.29626	1500.18311	-476.14383	1379.26941	1256.87964	-468.74844	1185.12463	1185.75964	-441.51096	1065.31433	1173.64966	-380.59885	950.86707	1180.22778	-327.41284	847.55756	1217.17383	-349.92657	841.72247	1166.48401	-304.33252	772.80267	1179.34229	-488.84479	1367.02368	1571.48438	-496.99142	1142.92151	1638.11804	-484.36734	1029.84851	1647.77185	-476.42474	892.87866	1647.6261	-456.36728	795.26239	1608.76465	-482.69949	793.15698	1656.57483	-467.26126	719.73621	1643.19202	-439.66147	938.6264	1290.96399	-428.99753	944.3667	1529.19971	-599.12354	966.72296	1350.1593	-591.70911	974.50861	1497.63977	-543.84308	646.47607	1251.32861	-578.54694	470.43622	1278.78674	-701.64886	310.66498	1281.64661	-794.02362	118.95192	1323.25745	-841.09131	102.46732	1362.6781	-665.15381	32.76442	1344.99927	-442.99283	651.52856	1573.3114	-391.4986	478.74719	1534.58167	-400.73767	289.97067	1543.0509	-379.69485	74.33195	1498.56177	-421.52625	41.65508	1446.71191	-236.53728	39.15616	1483.58765	-494.6225	1682.5061	1392.18494	NaN	NaN	NaN	NaN	NaN	NaN	NaN	NaN	NaN	NaN	NaN	NaN	NaN	NaN	NaN	NaN	NaN	NaN
176	1.75	-401.38113	1625.44775	1347.74292	-406.34906	1634.41345	1480.58337	-526.14313	1573.16943	1350.50391	-526.20239	1582.05518	1481.40088	-549.78015	1421.46155	1410.97363	-588.59906	1110.22791	1411.95874	-428.43884	1342.72339	1414.57861	-388.43509	1176.7146	1408.76233	-608.40375	1247.76453	1502.04675	-468.82748	1380.90076	1258.50842	-462.68484	1186.58728	1187.68433	-437.69363	1066.26648	1175.62366	-378.94135	950.55444	1181.40186	-327.43582	845.91003	1217.5625	-350.67285	840.75238	1167.01929	-306.86624	770.35339	1179.51733	-481.07098	1368.69531	1572.86011	-488.80206	1144.57886	1639.55713	-476.04376	1031.60046	1649.12573	-468.27707	894.6264	1649.09363	-448.61008	796.88318	1610.34973	-474.70819	794.91284	1658.31995	-459.94269	721.19891	1644.93799	-431.85242	939.91858	1292.62073	-421.16934	946.05579	1530.69409	-591.19373	968.1286	1351.68958	-583.67761	975.93292	1499.14502	-535.05035	647.2547	1251.52271	-568.69775	470.8421	1277.43347	-694.63	312.88345	1280.67456	-790.58496	123.26524	1322.46008	-837.65656	108.18687	1362.20703	-664.95416	32.63177	1345.26147	-437.85153	652.28601	1574.72034	-388.46909	478.95767	1536.03064	-398.98434	290.08429	1543.80603	-379.62219	74.30997	1498.69666	-421.56989	41.70616	1446.8573	-236.50183	39.06131	1483.63257	-488.26212	1683.80591	1394.21143	NaN	NaN	NaN	NaN	NaN	NaN	NaN	NaN	NaN	NaN	NaN	NaN	NaN	NaN	NaN	NaN	NaN	NaN
